<svg width="300" height="300" viewBox="0 0 300 300" fill="none" xmlns="http://www.w3.org/2000/svg">
<rect width="300" height="300" fill="#1B1B1B"/>
<path d="M48.3409 154.795V147.159L93.6136 125.205V135.602L60.2045 150.841L60.5114 150.227V151.693L60.2045 151.114L93.6136 166.318V176.75L48.3409 154.795ZM148.688 133.523C148.324 130.295 146.824 127.795 144.188 126.023C141.551 124.227 138.233 123.33 134.233 123.33C131.369 123.33 128.892 123.784 126.801 124.693C124.71 125.58 123.085 126.807 121.926 128.375C120.79 129.92 120.222 131.682 120.222 133.659C120.222 135.318 120.608 136.75 121.381 137.955C122.176 139.159 123.21 140.17 124.483 140.989C125.778 141.784 127.165 142.455 128.642 143C130.119 143.523 131.54 143.955 132.903 144.295L139.722 146.068C141.949 146.614 144.233 147.352 146.574 148.284C148.915 149.216 151.085 150.443 153.085 151.966C155.085 153.489 156.699 155.375 157.926 157.625C159.176 159.875 159.801 162.568 159.801 165.705C159.801 169.659 158.778 173.17 156.733 176.239C154.71 179.307 151.767 181.727 147.903 183.5C144.063 185.273 139.415 186.159 133.96 186.159C128.733 186.159 124.21 185.33 120.392 183.67C116.574 182.011 113.585 179.659 111.426 176.614C109.267 173.545 108.074 169.909 107.847 165.705H118.415C118.619 168.227 119.438 170.33 120.869 172.011C122.324 173.67 124.176 174.909 126.426 175.727C128.699 176.523 131.188 176.92 133.892 176.92C136.869 176.92 139.517 176.455 141.835 175.523C144.176 174.568 146.017 173.25 147.358 171.568C148.699 169.864 149.369 167.875 149.369 165.602C149.369 163.534 148.778 161.841 147.597 160.523C146.438 159.205 144.858 158.114 142.858 157.25C140.881 156.386 138.642 155.625 136.142 154.966L127.892 152.716C122.301 151.193 117.869 148.955 114.597 146C111.347 143.045 109.722 139.136 109.722 134.273C109.722 130.25 110.813 126.739 112.994 123.739C115.176 120.739 118.131 118.409 121.858 116.75C125.585 115.068 129.79 114.227 134.472 114.227C139.199 114.227 143.369 115.057 146.983 116.716C150.619 118.375 153.483 120.659 155.574 123.568C157.665 126.455 158.756 129.773 158.847 133.523H148.688ZM198.162 111.909L175.662 195.5H166.56L189.06 111.909H198.162ZM254.582 161.341L209.31 183.295V172.864L242.719 157.659L242.378 158.239V156.773L242.719 157.386L209.31 142.148V131.75L254.582 153.705V161.341Z" fill="white"/>
</svg>
